<?xml version="1.0" standalone="no"?>
<!DOCTYPE svg PUBLIC "-//W3C//DTD SVG 20010904//EN"
 "http://www.w3.org/TR/2001/REC-SVG-20010904/DTD/svg10.dtd">
<svg version="1.0" xmlns="http://www.w3.org/2000/svg"
 width="430.000000pt" height="141.000000pt" viewBox="0 0 430.000000 141.000000"
 preserveAspectRatio="xMidYMid meet">

<g transform="translate(0.000000,141.000000) scale(0.100000,-0.100000)"
fill="#000000" stroke="none">
<path d="M1042 1043 c-77 -3 -101 -7 -95 -16 4 -8 1 -7 -10 2 -13 10 -43 12
-139 6 -68 -3 -182 -7 -255 -8 -72 -1 -134 -5 -138 -9 -7 -7 77 -169 99 -191
9 -8 49 -11 139 -9 113 3 125 5 120 20 -6 15 -5 15 11 -1 12 -11 27 -16 40
-13 40 10 241 8 239 -2 -1 -5 -31 -52 -67 -103 -36 -52 -64 -98 -63 -103 3
-13 230 -7 239 7 4 7 8 8 8 3 0 -5 34 39 75 98 l76 107 -29 57 c-76 149 -87
163 -121 160 -14 -1 -72 -4 -129 -5z"/>
<path d="M3040 809 c0 -54 -2 -60 -17 -54 -103 40 -192 -20 -180 -123 8 -71
31 -87 130 -87 l82 0 5 50 c8 76 0 275 -11 275 -5 0 -9 -27 -9 -61z m-14 -80
c11 -9 14 -30 12 -88 l-3 -76 -56 -3 c-47 -2 -61 1 -83 20 -44 38 -38 119 11
151 31 19 93 18 119 -4z"/>
<path d="M2105 850 c-8 -14 3 -30 21 -30 8 0 14 9 14 20 0 21 -24 28 -35 10z"/>
<path d="M1433 763 c-13 -2 -23 -11 -23 -18 0 -11 6 -12 26 -5 35 14 87 12
107 -2 9 -7 18 -24 19 -38 3 -22 -1 -25 -32 -28 -55 -4 -124 -22 -132 -35 -14
-22 -8 -64 10 -80 24 -22 100 -22 131 0 22 15 25 15 36 0 13 -18 45 -23 45 -8
0 5 -7 11 -15 15 -12 4 -15 23 -15 84 0 66 -3 82 -20 97 -20 18 -93 28 -137
18z m137 -138 c0 -46 -78 -80 -134 -59 -19 7 -22 59 -3 71 13 9 117 21 130 15
4 -2 7 -14 7 -27z"/>
<path d="M1727 750 c-30 -24 -37 -25 -37 -5 0 8 -4 15 -10 15 -6 0 -10 -43
-10 -110 0 -67 4 -110 10 -110 6 0 10 33 10 79 0 76 1 80 31 105 36 31 68 33
100 8 19 -16 23 -31 27 -105 2 -48 8 -87 13 -87 5 0 9 38 9 85 l0 85 33 20
c41 25 72 25 97 0 17 -17 20 -33 20 -105 0 -50 4 -85 10 -85 6 0 10 38 10 94
0 90 -1 96 -26 115 -31 24 -69 27 -104 6 -14 -8 -30 -17 -37 -21 -7 -3 -24 4
-39 15 -34 26 -74 27 -107 1z"/>
<path d="M2263 751 c-28 -18 -32 -18 -37 -4 -12 29 -18 5 -18 -69 0 -119 1
-138 12 -138 6 0 10 32 10 76 0 41 4 83 10 93 15 29 64 45 99 33 35 -12 52 2
22 17 -29 16 -62 13 -98 -8z"/>
<path d="M2463 763 c-13 -2 -23 -11 -23 -18 0 -11 6 -12 26 -5 60 23 124 0
124 -44 0 -21 -6 -24 -65 -29 -86 -8 -105 -19 -105 -62 0 -18 7 -41 16 -49 21
-21 102 -21 133 0 22 16 24 16 33 0 10 -17 48 -22 48 -6 0 6 -6 10 -14 10 -10
0 -15 22 -18 85 -3 61 -9 90 -20 102 -17 16 -93 26 -135 16z m127 -142 c0 -37
-35 -61 -88 -61 -46 0 -67 19 -58 54 7 28 21 33 94 35 51 1 52 0 52 -28z"/>
<path d="M3183 756 c-78 -36 -84 -170 -8 -204 27 -13 112 -16 139 -6 34 13 13
20 -47 16 -56 -4 -67 -1 -90 19 -14 13 -27 33 -29 44 -3 19 3 20 95 23 l97 3
0 29 c0 67 -85 108 -157 76z m112 -31 c46 -45 35 -55 -60 -55 -79 0 -85 2 -85
20 0 25 54 60 93 60 16 0 38 -10 52 -25z"/>
<path d="M2110 650 c0 -60 4 -110 9 -110 15 0 18 20 19 123 1 79 -1 97 -13 97
-12 0 -15 -20 -15 -110z"/>
<path d="M3384 745 c3 -10 25 -60 48 -112 46 -104 67 -118 92 -60 8 17 30 67
50 110 25 54 31 77 22 77 -8 0 -32 -41 -54 -92 -23 -51 -45 -94 -50 -96 -5 -1
-26 39 -48 89 -21 51 -45 94 -53 97 -10 3 -12 0 -7 -13z"/>
<path d="M2670 660 c0 -6 28 -10 65 -10 37 0 65 4 65 10 0 6 -28 10 -65 10
-37 0 -65 -4 -65 -10z"/>
</g>
</svg>
